<svg id="svg" xmlns="http://www.w3.org/2000/svg" xmlns:xlink="http://www.w3.org/1999/xlink" width="400" height="400" viewBox="0, 0, 400,400"><g id="svgg"><path id="path0" d="M153.197 44.444 C 151.548 46.432,151.650 47.484,153.773 50.383 C 155.193 52.321,158.088 56.295,160.208 59.215 C 166.596 68.015,165.551 72.505,153.735 87.012 C 139.010 105.090,138.190 117.605,150.754 132.505 C 160.580 144.159,167.360 136.465,158.659 123.535 C 151.343 112.663,151.528 108.471,159.766 98.460 C 178.726 75.415,180.283 67.794,169.299 51.783 C 162.858 42.395,157.083 39.762,153.197 44.444 M199.479 43.229 C 197.315 45.393,198.575 50.285,202.343 54.349 C 212.568 65.376,212.601 70.911,202.515 83.315 C 185.503 104.237,183.748 111.376,192.055 125.858 C 197.577 135.486,200.313 137.893,204.976 137.229 C 210.191 136.487,210.212 132.259,205.040 124.654 C 196.548 112.170,197.370 107.017,210.215 92.188 C 225.105 74.997,225.636 64.086,212.365 47.986 C 207.903 42.574,202.229 40.479,199.479 43.229 M244.234 44.744 C 243.694 46.150,243.892 48.135,244.673 49.155 C 252.964 59.981,256.362 66.759,255.563 70.876 C 254.675 75.455,253.993 76.489,242.611 90.500 C 230.993 104.803,230.179 115.429,239.647 129.204 C 245.220 137.311,250.991 139.611,254.661 135.188 C 256.402 133.090,255.945 131.651,251.633 125.645 C 242.108 112.382,242.821 108.879,259.255 88.182 C 270.569 73.934,269.940 60.552,257.331 47.266 C 252.120 41.774,245.837 40.565,244.234 44.744 M94.526 168.319 C 99.188 228.475,111.498 284.314,125.030 306.695 L 130.902 316.406 199.734 316.813 L 268.566 317.220 272.811 311.655 C 275.146 308.594,279.377 300.325,282.214 293.279 L 287.373 280.469 300.497 279.548 C 366.689 274.902,383.680 189.856,324.219 160.811 L 313.281 155.469 203.372 155.037 L 93.463 154.606 94.526 168.319 M313.974 185.892 C 344.930 201.685,333.555 253.001,299.073 253.110 L 294.240 253.125 296.361 242.578 C 298.332 232.779,304.592 189.161,304.658 184.766 C 304.699 182.044,306.970 182.319,313.974 185.892 M43.271 332.985 C 47.512 340.288,55.441 346.250,71.726 354.381 L 86.422 361.719 195.945 362.173 C 272.104 362.489,307.611 362.101,312.500 360.900 C 329.170 356.804,349.887 343.942,357.868 332.734 L 361.150 328.125 200.799 328.125 L 40.448 328.125 43.271 332.985 " stroke="none" fill="#000000" fill-rule="evenodd"></path></g></svg>